<svg xmlns="http://www.w3.org/2000/svg" xmlns:xlink="http://www.w3.org/1999/xlink" viewBox="0 0 69.15 56.92"><defs><style>.cls-1{fill:url(#linear-gradient);}.cls-2{fill:url(#linear-gradient-2);}</style><linearGradient id="linear-gradient" y1="28.46" x2="56.32" y2="28.46" gradientUnits="userSpaceOnUse"><stop offset="0" stop-color="#1288cc"/><stop offset="0.1" stop-color="#127fce"/><stop offset="0.28" stop-color="#1265d3"/><stop offset="0.37" stop-color="#1254d6"/><stop offset="0.62" stop-color="#1254d6"/><stop offset="0.86" stop-color="#1268d6"/></linearGradient><linearGradient id="linear-gradient-2" x1="48.9" y1="32.71" x2="69.15" y2="32.71" gradientUnits="userSpaceOnUse"><stop offset="0" stop-color="#ffc356"/><stop offset="0.32" stop-color="#fdbf53"/><stop offset="0.59" stop-color="#fdbf1e"/><stop offset="1" stop-color="#fdbf1e"/></linearGradient></defs><title>Asset 1</title><g id="Layer_2" data-name="Layer 2"><g id="Layer_1-2" data-name="Layer 1"><path class="cls-1" d="M55.95,11.57l-20.67,0-13,20.7V11.59h1.84a.45.45,0,0,0,.3-.78L12.83.21a.8.8,0,0,0-1.08,0L.15,10.81a.45.45,0,0,0,.3.78H2.29V47.8h0c0,5,4.46,9.13,10,9.13s10-4.09,10-9.13h0V32.48L35.68,53.89H56.32L42.85,32.35Z"/><polygon class="cls-2" points="56.04 32.35 69.14 11.57 62.27 11.55 48.9 32.24 62.15 53.87 69.15 53.88 56.04 32.35"/></g></g></svg>