<svg xmlns="http://www.w3.org/2000/svg" viewBox="0 0 59.85 48.83"><defs><style>.cls-1{fill:none;stroke:#fff;stroke-linecap:round;stroke-linejoin:round;stroke-width:2.4px;}</style></defs><title>Asset 1</title><g id="Layer_2" data-name="Layer 2"><g id="Layer_1-2" data-name="Layer 1"><path class="cls-1" d="M1.2,6.08H58.65V47.63H1.2V6.08Zm0,0H58.65V24A5.69,5.69,0,0,1,53,29.63H6.87A5.69,5.69,0,0,1,1.2,24V6.08ZM22.35,33.44v4h-12v-4m38.55,0v4h-12v-4M38.64,6.08V1.2H21.21V6.08m-8,31.35h6.23v10.2H13.24V37.43Zm26.55,0H46v10.2H39.79V37.43Zm7-31.35V22.76M19.13,6.08V22.76M13,6.08V22.76M40.72,6.08V22.76M23.47,24h12.9"/></g></g></svg>