<svg xmlns="http://www.w3.org/2000/svg" viewBox="0 0 72.9 34.72"><defs><style>.cls-1,.cls-2{fill:none;stroke:#fff;stroke-width:2.4px;}.cls-1{stroke-miterlimit:22.93;}.cls-2{stroke-linecap:round;stroke-linejoin:round;}</style></defs><title>Asset 1</title><g id="Layer_2" data-name="Layer 2"><g id="Layer_1-2" data-name="Layer 1"><path class="cls-1" d="M15.43,19.28A14.23,14.23,0,0,1,29.67,33.52H1.2A14.23,14.23,0,0,1,15.43,19.28Zm42,0A14.23,14.23,0,0,1,71.7,33.52H43.23A14.23,14.23,0,0,1,57.47,19.28ZM29.15,24A14.25,14.25,0,0,1,44,24.37"/><path class="cls-2" d="M15.43,1.2A6.86,6.86,0,1,1,8.58,8.06,6.86,6.86,0,0,1,15.43,1.2Zm42,0a6.86,6.86,0,1,1-6.86,6.86A6.86,6.86,0,0,1,57.47,1.2ZM36.3,4a6.86,6.86,0,1,1-6.86,6.86A6.86,6.86,0,0,1,36.3,4ZM15.43,23V30.2m42-7.75v7.19"/></g></g></svg>