<svg xmlns="http://www.w3.org/2000/svg" viewBox="0 0 70 60.2"><defs><style>.cls-1{fill:#fff;}</style></defs><title>Asset 1</title><g id="Layer_2" data-name="Layer 2"><g id="Layer_1-2" data-name="Layer 1"><path class="cls-1" d="M6.9,53.69a1.2,1.2,0,0,1,0-2.4H33.75a1.2,1.2,0,1,1,0,2.4Z"/><path class="cls-1" d="M1.2,60.14a1.2,1.2,0,1,1,0-2.4H39.15a1.2,1.2,0,1,1,0,2.4Z"/><path class="cls-1" d="M32.91.32,50.24,16.26A1.2,1.2,0,0,1,50.31,18l-5.38,5.85a1.2,1.2,0,0,1-1.69.07L25.91,7.93a1.2,1.2,0,0,1-.07-1.69L31.22.39A1.2,1.2,0,0,1,32.91.32Zm14.82,16.9L32.17,2.89,28.41,7,44,21.3l3.76-4.09Z"/><path class="cls-1" d="M14,20.83,31.36,36.78a1.2,1.2,0,0,1,.07,1.69L26,44.32a1.2,1.2,0,0,1-1.69.07L7,28.44A1.2,1.2,0,0,1,7,26.75l5.38-5.85A1.2,1.2,0,0,1,14,20.83Zm14.82,16.9L13.29,23.4,9.53,27.49,25.1,41.82l3.76-4.09Z"/><path class="cls-1" d="M30.46,8.86,41.93,19.42A1.2,1.2,0,0,1,42,21.11L28.54,35.74a1.2,1.2,0,0,1-1.69.07L15.37,25.24a1.2,1.2,0,0,1-.07-1.69L28.76,8.93a1.2,1.2,0,0,1,1.69-.07Zm9,11.52-9.72-8.94L17.88,24.29l9.72,8.94L39.43,20.37Z"/><path class="cls-1" d="M41.76,25.45a1.2,1.2,0,0,1,1.76,1.62l-8,8.66a1.2,1.2,0,1,1-1.76-1.62l8-8.66Z"/><path class="cls-1" d="M67.92,49.53a1.2,1.2,0,0,1,1.76,1.62l-8,8.66a1.2,1.2,0,0,1-1.76-1.62l8-8.66Z"/><path class="cls-1" d="M39.08,35.15a1.2,1.2,0,1,1,2.26-.79s4.41,13.06,20,18.25a1.19,1.19,0,1,1-.75,2.27,34.53,34.53,0,0,1-21.5-19.73Z"/><path class="cls-1" d="M42.89,32.68a1.2,1.2,0,1,1,.6-2.32A34.52,34.52,0,0,1,64.94,50.15a1.2,1.2,0,1,1-2.2.94C56.27,36,42.93,32.69,42.89,32.68Z"/></g></g></svg>