<svg xmlns="http://www.w3.org/2000/svg" viewBox="0 0 48 48"><defs><style>.cls-1,.cls-2{fill:#656d82}.cls-1{fill-rule:evenodd}</style></defs><title>Asset 1</title><g id="Layer_2" data-name="Layer 2"><g id="Layer_1-2" data-name="Layer 1"><path class="cls-1" d="M24 0A24 24 0 1 1 0 24 24 24 0 0 1 24 0zm-6.07 13.22h12.25v5.13H17.93v-5.13zm-3.78 17.45h3.46V36H30.5v-5.33h3.35a1 1 0 0 0 1-1v-7.8l-2.77-2.77H15.92l-2.74 2.76v7.83a1 1 0 0 0 1 1z"/><path class="cls-2" d="M16.72 28.08a.48.48 0 0 1 0-1h14.67a.48.48 0 0 1 0 1zm4.54 4.01a.48.48 0 0 1 0-1h5.6a.48.48 0 0 1 0 1zm0-1.85a.48.48 0 0 1 0-1h5.6a.48.48 0 0 1 0 1zm0 4.5a.48.48 0 0 1 0-1h2.42a.48.48 0 1 1 0 1z"/></g></g></svg>