<svg xmlns="http://www.w3.org/2000/svg" viewBox="0 0 27.25 27.25"><defs><style>.cls-1{fill:#656d82;fill-rule:evenodd}</style></defs><title>Asset 2</title><g id="Layer_2" data-name="Layer 2"><path class="cls-1" d="M13.63 0A13.62 13.62 0 1 1 0 13.63 13.62 13.62 0 0 1 13.63 0zm-2.94 6.46h5.88a4.32 4.32 0 0 1 3.06 1.27 4.32 4.32 0 0 1 1.27 3.06v5.66a4.35 4.35 0 0 1-4.33 4.33h-5.88a4.34 4.34 0 0 1-4.33-4.33v-5.66a4.32 4.32 0 0 1 1.27-3.06 4.32 4.32 0 0 1 3-1.23zm6.77 2.45a.85.85 0 1 1-.85.85.85.85 0 0 1 .85-.85zm-3.83.9a3.8 3.8 0 0 1 2.69 1.12 3.81 3.81 0 0 1 0 5.39 3.81 3.81 0 0 1-5.39 0 3.81 3.81 0 0 1 0-5.39 3.8 3.8 0 0 1 2.69-1.12zm1.68 2.13a2.38 2.38 0 0 0-3.36 0 2.38 2.38 0 0 0 0 3.36 2.38 2.38 0 0 0 3.36 0 2.38 2.38 0 0 0 0-3.36zm1.26-4h-5.88a2.88 2.88 0 0 0-2 .81 2.88 2.88 0 0 0-.85 2v5.66a2.9 2.9 0 0 0 2.89 2.89h5.88a2.9 2.9 0 0 0 2.89-2.89v-5.62a2.88 2.88 0 0 0-.85-2 2.88 2.88 0 0 0-2-.85z" id="Layer_1-2" data-name="Layer 1"/></g></svg>