<svg xmlns="http://www.w3.org/2000/svg" viewBox="0 0 27.25 27.25"><defs><style>.cls-1{fill:#656d82;fill-rule:evenodd}</style></defs><title>Asset 1</title><g id="Layer_2" data-name="Layer 2"><path class="cls-1" d="M13.63 0A13.63 13.63 0 1 1 0 13.63 13.62 13.62 0 0 1 13.63 0zm3.2 6.88a3.47 3.47 0 0 1 2.69 1.28 6.83 6.83 0 0 0 1.91-1.1c.15.86-1.14 1.89-1.39 2l1.7-.46a4.63 4.63 0 0 1-1.45 1.58c.47 8-8 12.67-14.78 8.89a8.11 8.11 0 0 0 4.84-1.65c-1.83.26-3.17-1.37-3.54-2.18a10.45 10.45 0 0 0 1.41-.16c-1.85-.48-2.41-2.59-2.41-3.49a10.42 10.42 0 0 0 1.5.48c-1.47-.91-1.65-3-.92-4.47a10.49 10.49 0 0 0 7 3.58 3.48 3.48 0 0 1 3.38-4.28z" id="Layer_1-2" data-name="Layer 1"/></g></svg>