<svg xmlns="http://www.w3.org/2000/svg" viewBox="0 0 48 48"><defs><style>.cls-1,.cls-2{fill:#656d82;}.cls-1{fill-rule:evenodd;}</style></defs><title>Asset 1</title><g id="Layer_2" data-name="Layer 2"><g id="Layer_1-2" data-name="Layer 1"><path class="cls-1" d="M24,0A24,24,0,1,1,0,24,24,24,0,0,1,24,0ZM17.93,13.22H30.18v5.13H17.93V13.22ZM14.15,30.67h3.46V36H30.5V30.67h3.35a1,1,0,0,0,1-1V21.87L32.08,19.1H15.92l-2.74,2.76v7.83a1,1,0,0,0,1,1Z"/><path class="cls-2" d="M16.72,28.08a.48.48,0,0,1,0-1H31.39a.48.48,0,0,1,0,1Z"/><path class="cls-2" d="M21.26,32.09a.48.48,0,0,1,0-1h5.6a.48.48,0,0,1,0,1Z"/><path class="cls-2" d="M21.26,30.24a.48.48,0,0,1,0-1h5.6a.48.48,0,0,1,0,1Z"/><path class="cls-2" d="M21.26,34.74a.48.48,0,0,1,0-1h2.42a.48.48,0,1,1,0,1Z"/></g></g></svg>