<svg xmlns="http://www.w3.org/2000/svg" viewBox="0 0 48 48"><defs><style>.cls-1,.cls-2{fill:#656d82;}.cls-1{fill-rule:evenodd;}</style></defs><title>Asset 1</title><g id="Layer_2" data-name="Layer 2"><g id="Layer_1-2" data-name="Layer 1"><path class="cls-1" d="M24,0A24,24,0,1,1,0,24,24,24,0,0,1,24,0Zm0,14a4.37,4.37,0,1,1-4.37,4.37A4.37,4.37,0,0,1,24,14ZM24,24.4a9.07,9.07,0,0,1,9.07,9.07H14.93A9.07,9.07,0,0,1,24,24.4Z"/><path class="cls-2" d="M23.28,28a.72.72,0,0,1,1.44,0V32.4a.72.72,0,0,1-1.44,0V28Z"/><path class="cls-2" d="M23.28,25.82a.72.72,0,0,1,1.44,0v.36a.72.72,0,0,1-1.44,0v-.36Z"/></g></g></svg>