<svg xmlns="http://www.w3.org/2000/svg" viewBox="0 0 59.85 48.83"><defs><style>.cls-1{fill:none;stroke:#fff;stroke-linecap:round;stroke-linejoin:round;stroke-width:2.4px}</style></defs><title>Asset 1</title><g id="Layer_2" data-name="Layer 2"><path class="cls-1" d="M1.2 6.08h57.45v41.55H1.2V6.08zm0 0h57.45V24A5.69 5.69 0 0 1 53 29.63H6.87A5.69 5.69 0 0 1 1.2 24V6.08zm21.15 27.36v4h-12v-4m38.55 0v4h-12v-4m1.74-27.36V1.2H21.21v4.88m-8 31.35h6.23v10.2h-6.2v-10.2zm26.55 0H46v10.2h-6.21v-10.2zm7-31.35v16.68M19.13 6.08v16.68M13 6.08v16.68M40.72 6.08v16.68M23.47 24h12.9" id="Layer_1-2" data-name="Layer 1"/></g></svg>