<svg xmlns="http://www.w3.org/2000/svg" viewBox="0 0 72.9 34.72"><defs><style>.cls-1,.cls-2{fill:none;stroke:#fff;stroke-width:2.4px}.cls-1{stroke-miterlimit:22.93}.cls-2{stroke-linecap:round;stroke-linejoin:round}</style></defs><title>Asset 1</title><g id="Layer_2" data-name="Layer 2"><g id="Layer_1-2" data-name="Layer 1"><path class="cls-1" d="M15.43 19.28a14.23 14.23 0 0 1 14.24 14.24H1.2a14.23 14.23 0 0 1 14.23-14.24zm42 0A14.23 14.23 0 0 1 71.7 33.52H43.23a14.23 14.23 0 0 1 14.24-14.24zM29.15 24a14.25 14.25 0 0 1 14.85.37"/><path class="cls-2" d="M15.43 1.2a6.86 6.86 0 1 1-6.85 6.86 6.86 6.86 0 0 1 6.85-6.86zm42 0a6.86 6.86 0 1 1-6.86 6.86 6.86 6.86 0 0 1 6.9-6.86zM36.3 4a6.86 6.86 0 1 1-6.86 6.86A6.86 6.86 0 0 1 36.3 4zM15.43 23v7.2m42-7.75v7.19"/></g></g></svg>