<svg xmlns="http://www.w3.org/2000/svg" viewBox="0 0 70.78 64.17"><defs><style>.cls-1{fill:none;stroke:#fff;stroke-linecap:round;stroke-linejoin:round;stroke-width:2.4px}</style></defs><title>Asset 2</title><g id="Layer_2" data-name="Layer 2"><path class="cls-1" d="M21.73 39.42V23l16.63-13L55 23v16.42m-22.62.81V28.42H45v11.82m15.45-22L54 13.2V1.55m-5.75 0V8.7l-9.58-7.5-21.82 17.07M46.41 1.51h9.41M1.2 58.16s9.81-14 14.31-14.88S31.2 45.1 32.45 45s7.69-1.81 12.19-.87 6.12 3.37 5.31 5.44-5.5 3.31-12.62 3.25S27.14 54 26.2 55.22M18 63s3.63-2.31 6.25-2.25 15.2.85 17.75-.15 13.14-7.94 17.2-10.25 10.38-9.44 10.38-9.44-2.31-3.5-6.19-2.44-8.94 5-10.81 6.31" id="Layer_1-2" data-name="Layer 1"/></g></svg>