<svg xmlns="http://www.w3.org/2000/svg" viewBox="0 0 70 60.2"><defs><style>.cls-1{fill:#fff}</style></defs><title>Asset 1</title><g id="Layer_2" data-name="Layer 2"><g id="Layer_1-2" data-name="Layer 1"><path class="cls-1" d="M6.9 53.69a1.2 1.2 0 0 1 0-2.4h26.85a1.2 1.2 0 1 1 0 2.4zm-5.7 6.45a1.2 1.2 0 1 1 0-2.4h37.95a1.2 1.2 0 1 1 0 2.4zM32.91.32l17.33 15.94a1.2 1.2 0 0 1 .07 1.74l-5.38 5.85a1.2 1.2 0 0 1-1.69.07L25.91 7.93a1.2 1.2 0 0 1-.07-1.69L31.22.39a1.2 1.2 0 0 1 1.69-.07zm14.82 16.9L32.17 2.89 28.41 7 44 21.3l3.76-4.09zM14 20.83l17.36 15.95a1.2 1.2 0 0 1 .07 1.69L26 44.32a1.2 1.2 0 0 1-1.69.07L7 28.44a1.2 1.2 0 0 1 0-1.69l5.38-5.85a1.2 1.2 0 0 1 1.62-.07zm14.82 16.9L13.29 23.4l-3.76 4.09L25.1 41.82l3.76-4.09z"/><path class="cls-1" d="M30.46 8.86l11.47 10.56a1.2 1.2 0 0 1 .07 1.69L28.54 35.74a1.2 1.2 0 0 1-1.69.07L15.37 25.24a1.2 1.2 0 0 1-.07-1.69L28.76 8.93a1.2 1.2 0 0 1 1.69-.07zm9 11.52l-9.72-8.94-11.86 12.85 9.72 8.94 11.83-12.86zm2.3 5.07a1.2 1.2 0 0 1 1.76 1.62l-8 8.66a1.2 1.2 0 1 1-1.76-1.62l8-8.66zm26.16 24.08a1.2 1.2 0 0 1 1.76 1.62l-8 8.66a1.2 1.2 0 0 1-1.76-1.62l8-8.66zM39.08 35.15a1.2 1.2 0 1 1 2.26-.79s4.41 13.06 20 18.25a1.19 1.19 0 1 1-.75 2.27 34.53 34.53 0 0 1-21.5-19.73zm3.81-2.47a1.2 1.2 0 1 1 .6-2.32 34.52 34.52 0 0 1 21.45 19.79 1.2 1.2 0 1 1-2.2.94C56.27 36 42.93 32.69 42.89 32.68z"/></g></g></svg>