<svg xmlns="http://www.w3.org/2000/svg" viewBox="0 0 27.25 27.25"><defs><style>.cls-1{fill:#1268d6;fill-rule:evenodd;}</style></defs><title>Asset 2</title><g id="Layer_2" data-name="Layer 2"><g id="Layer_1-2" data-name="Layer 1"><path class="cls-1" d="M13.63,0A13.62,13.62,0,1,1,0,13.63,13.62,13.62,0,0,1,13.63,0ZM10.69,6.46h5.88a4.32,4.32,0,0,1,3.06,1.27h0a4.32,4.32,0,0,1,1.27,3.06v5.66a4.35,4.35,0,0,1-4.33,4.33H10.69a4.34,4.34,0,0,1-4.33-4.33V10.79A4.32,4.32,0,0,1,7.63,7.73l0,0a4.32,4.32,0,0,1,3-1.23Zm6.77,2.45a.85.85,0,1,1-.85.85.85.85,0,0,1,.85-.85Zm-3.83.9a3.8,3.8,0,0,1,2.69,1.12h0a3.81,3.81,0,0,1,0,5.39h0a3.81,3.81,0,0,1-5.39,0h0a3.81,3.81,0,0,1,0-5.39h0a3.8,3.8,0,0,1,2.69-1.12Zm1.68,2.13a2.38,2.38,0,0,0-3.36,0h0a2.38,2.38,0,0,0,0,3.36h0a2.38,2.38,0,0,0,3.36,0h0a2.38,2.38,0,0,0,0-3.36Zm1.26-4H10.69a2.88,2.88,0,0,0-2,.81l0,0a2.88,2.88,0,0,0-.85,2v5.66a2.9,2.9,0,0,0,2.89,2.89h5.88a2.9,2.9,0,0,0,2.89-2.89V10.79a2.88,2.88,0,0,0-.85-2h0a2.88,2.88,0,0,0-2-.85Z"/></g></g></svg>