<svg xmlns="http://www.w3.org/2000/svg" viewBox="0 0 69.15 56.92"><defs><style>.cls-1{fill:url(#linear-gradient)}.cls-2{fill:url(#linear-gradient-2)}</style><linearGradient id="linear-gradient" y1="28.46" x2="56.32" y2="28.46" gradientUnits="userSpaceOnUse"><stop offset="0" stop-color="#1288cc"/><stop offset=".1" stop-color="#127fce"/><stop offset=".28" stop-color="#1265d3"/><stop offset=".37" stop-color="#1254d6"/><stop offset=".62" stop-color="#1254d6"/><stop offset=".86" stop-color="#1268d6"/></linearGradient><linearGradient id="linear-gradient-2" x1="48.9" y1="32.71" x2="69.15" y2="32.71" gradientUnits="userSpaceOnUse"><stop offset="0" stop-color="#ffc356"/><stop offset=".32" stop-color="#fdbf53"/><stop offset=".59" stop-color="#fdbf1e"/><stop offset="1" stop-color="#fdbf1e"/></linearGradient></defs><title>Asset 1</title><g id="Layer_2" data-name="Layer 2"><g id="Layer_1-2" data-name="Layer 1"><path class="cls-1" d="M55.95 11.57H35.28l-13 20.7V11.59h1.84a.45.45 0 0 0 .3-.78L12.83.21a.8.8 0 0 0-1.08 0L.15 10.81a.45.45 0 0 0 .3.78h1.84V47.8c0 5 4.46 9.13 10 9.13s10-4.09 10-9.13V32.48l13.39 21.41h20.64L42.85 32.35z"/><path class="cls-2" d="M56.04 32.35l13.1-20.78-6.87-.02L48.9 32.24l13.25 21.63 7 .01-13.11-21.53z"/></g></g></svg>